<svg width="24" height="23" viewBox="0 0 24 23" fill="none" xmlns="http://www.w3.org/2000/svg">
<path d="M12.2069 0C6.01499 0 0.976562 5.0344 0.976562 11.2238C0.976562 17.4132 6.01499 22.4476 12.2069 22.4476C18.3988 22.4476 23.4373 17.4132 23.4373 11.2238C23.4373 5.0344 18.3988 0 12.2069 0ZM12.2069 21.7C6.4275 21.7 1.72595 17.0002 1.72595 11.2238C1.72595 5.4474 6.4275 0.7476 12.2069 0.7476C17.9863 0.7476 22.6879 5.4474 22.6879 11.2238C22.6879 17.0002 17.9863 21.7 12.2069 21.7Z" fill="white"/>
<path d="M14.659 4.92378H12.7904C10.4106 4.89998 10.1066 6.37208 10.1066 7.96529V9.12379H9.05605C9.00857 9.11745 8.96026 9.12213 8.91489 9.13748C8.86951 9.15283 8.82828 9.17842 8.79441 9.21228C8.76054 9.24614 8.73493 9.28734 8.71957 9.33269C8.70421 9.37805 8.69953 9.42633 8.70587 9.47379V11.5738C8.69953 11.6212 8.70421 11.6695 8.71957 11.7149C8.73493 11.7602 8.76054 11.8014 8.79441 11.8353C8.82828 11.8692 8.86951 11.8947 8.91489 11.9101C8.96026 11.9254 9.00857 11.9301 9.05605 11.9238H10.1066V17.1738C10.1008 17.2213 10.1059 17.2696 10.1216 17.3149C10.1372 17.3601 10.163 17.4012 10.197 17.435C10.231 17.4687 10.2723 17.4943 10.3177 17.5097C10.363 17.5251 10.4114 17.5299 10.4589 17.5238H12.5985C12.8051 17.5476 12.9725 17.3803 12.9067 17.1738L12.9081 11.9238H14.659C14.7065 11.9301 14.7548 11.9254 14.8001 11.9101C14.8455 11.8947 14.8867 11.8692 14.9206 11.8353C14.9545 11.8014 14.9801 11.7602 14.9955 11.7149C15.0108 11.6695 15.0155 11.6212 15.0092 11.5738V9.47379C15.0155 9.42633 15.0108 9.37805 14.9955 9.33269C14.9801 9.28734 14.9545 9.24614 14.9206 9.21228C14.8867 9.17842 14.8455 9.15283 14.8001 9.13748C14.7548 9.12213 14.7065 9.11745 14.659 9.12379H12.906L12.9081 8.07379C12.976 7.62649 12.976 7.69929 13.3913 7.72379H14.6443C14.7416 7.70209 14.8453 7.71399 14.9181 7.64329C14.9909 7.57259 15.033 7.47599 15.0085 7.37379V5.27378C15.0149 5.22636 15.0103 5.17809 14.9951 5.13273C14.9798 5.08737 14.9543 5.04615 14.9204 5.01227C14.8866 4.9784 14.8454 4.95279 14.8001 4.93744C14.7547 4.92209 14.7064 4.91742 14.659 4.92378ZM14.2843 6.98458L13.406 6.95098C12.3184 6.95098 12.2273 7.54109 12.2273 8.14519L12.2245 9.47239C12.2244 9.52153 12.234 9.57022 12.2528 9.61565C12.2715 9.66108 12.2991 9.70237 12.3338 9.73716C12.3685 9.77194 12.4098 9.79954 12.4552 9.81837C12.5006 9.8372 12.5493 9.84689 12.5985 9.84689H14.3088V11.1993H12.5999C12.5006 11.1993 12.4054 11.2386 12.3352 11.3087C12.2649 11.3788 12.2254 11.4739 12.2252 11.5731L12.2245 16.8238H10.807V11.5738C10.807 11.3673 10.6662 11.2 10.4589 11.2H9.40623V9.84759H10.4589C10.508 9.84766 10.5567 9.83806 10.6021 9.81932C10.6476 9.80058 10.6888 9.77308 10.7236 9.73839C10.7937 9.66769 10.8063 9.57249 10.8063 9.47309V7.96459C10.8063 6.39518 11.1235 5.64758 12.7897 5.64758H14.2836V6.98458H14.2843Z" fill="white"/>
</svg>
