<svg width="53" height="53" viewBox="0 0 53 53" fill="none" xmlns="http://www.w3.org/2000/svg">
<g clip-path="url(#clip0_34717_6862)">
<path d="M38.6465 19.8749H32.0215C31.1432 19.8758 30.3012 20.2251 29.6802 20.8461C29.0591 21.4671 28.7099 22.3092 28.709 23.1874V29.8124C28.7096 30.3979 28.9424 30.9593 29.3564 31.3733C29.7705 31.7873 30.3318 32.0202 30.9173 32.0208V39.7499C30.9179 40.3354 31.1508 40.8968 31.5648 41.3108C31.9788 41.7248 32.5401 41.9577 33.1257 41.9583H37.5423C38.1278 41.9577 38.6892 41.7248 39.1032 41.3108C39.5172 40.8968 39.7501 40.3354 39.7507 39.7499V32.0208C40.3362 32.0202 40.8975 31.7873 41.3115 31.3733C41.7255 30.9593 41.9584 30.3979 41.959 29.8124V23.1874C41.9581 22.3092 41.6088 21.4671 40.9878 20.8461C40.3668 20.2251 39.5247 19.8758 38.6465 19.8749ZM39.7507 29.8124H37.5423V39.7499H33.1257V29.8124H30.9173V23.1874C30.9173 22.8946 31.0336 22.6137 31.2407 22.4067C31.4478 22.1996 31.7286 22.0833 32.0215 22.0833H38.6465C38.9393 22.0833 39.2202 22.1996 39.4272 22.4067C39.6343 22.6137 39.7507 22.8946 39.7507 23.1874V29.8124Z" fill="#2C49FE"/>
<path d="M30.918 14.3541C30.918 13.4806 31.177 12.6267 31.6623 11.9003C32.1476 11.174 32.8374 10.6079 33.6445 10.2736C34.4515 9.93935 35.3395 9.85189 36.1963 10.0223C37.053 10.1927 37.84 10.6134 38.4577 11.2311C39.0754 11.8487 39.496 12.6357 39.6664 13.4925C39.8369 14.3492 39.7494 15.2373 39.4151 16.0443C39.0808 16.8513 38.5147 17.5411 37.7884 18.0264C37.0621 18.5117 36.2082 18.7708 35.3346 18.7708C34.1636 18.7696 33.0409 18.3039 32.2129 17.4759C31.3848 16.6478 30.9191 15.5251 30.918 14.3541ZM33.1263 14.3541C33.1263 14.7909 33.2558 15.2178 33.4985 15.581C33.7411 15.9442 34.086 16.2272 34.4895 16.3943C34.8931 16.5615 35.3371 16.6052 35.7655 16.52C36.1938 16.4348 36.5873 16.2245 36.8962 15.9156C37.205 15.6068 37.4153 15.2133 37.5005 14.7849C37.5857 14.3566 37.542 13.9125 37.3749 13.509C37.2077 13.1055 36.9247 12.7606 36.5615 12.5179C36.1984 12.2753 35.7714 12.1458 35.3346 12.1458C34.7491 12.1464 34.1878 12.3792 33.7738 12.7932C33.3597 13.2072 33.1269 13.7686 33.1263 14.3541Z" fill="#2C49FE"/>
<path d="M24.2923 26.4999V23.1874C24.2914 22.3092 23.9422 21.4671 23.3211 20.8461C22.7001 20.2251 21.8581 19.8758 20.9798 19.8749H14.3548C13.4766 19.8758 12.6345 20.2251 12.0135 20.8461C11.3925 21.4671 11.0432 22.3092 11.0423 23.1874V26.4999H8.83398V28.7083H26.5007V26.4999H24.2923ZM13.2507 23.1874C13.2507 22.8946 13.367 22.6137 13.5741 22.4067C13.7811 22.1996 14.062 22.0833 14.3548 22.0833H20.9798C21.2727 22.0833 21.5535 22.1996 21.7606 22.4067C21.9677 22.6137 22.084 22.8946 22.084 23.1874V26.4999H13.2507V23.1874Z" fill="#2C49FE"/>
<path d="M13.25 14.3541C13.25 13.4806 13.509 12.6267 13.9943 11.9003C14.4797 11.174 15.1694 10.6079 15.9765 10.2736C16.7835 9.93935 17.6716 9.85189 18.5283 10.0223C19.3851 10.1927 20.172 10.6134 20.7897 11.2311C21.4074 11.8487 21.8281 12.6357 21.9985 13.4925C22.1689 14.3492 22.0814 15.2373 21.7471 16.0443C21.4128 16.8513 20.8468 17.5411 20.1204 18.0264C19.3941 18.5117 18.5402 18.7708 17.6667 18.7708C16.4957 18.7696 15.3729 18.3039 14.5449 17.4759C13.7169 16.6478 13.2512 15.5251 13.25 14.3541ZM15.4583 14.3541C15.4583 14.7909 15.5879 15.2178 15.8305 15.581C16.0732 15.9442 16.4181 16.2272 16.8216 16.3943C17.2251 16.5615 17.6691 16.6052 18.0975 16.52C18.5259 16.4348 18.9194 16.2245 19.2282 15.9156C19.537 15.6068 19.7474 15.2133 19.8326 14.7849C19.9178 14.3566 19.874 13.9125 19.7069 13.509C19.5398 13.1055 19.2567 12.7606 18.8936 12.5179C18.5304 12.2753 18.1034 12.1458 17.6667 12.1458C17.0812 12.1464 16.5198 12.3792 16.1058 12.7932C15.6918 13.2072 15.4589 13.7686 15.4583 14.3541Z" fill="#2C49FE"/>
</g>
<defs>
<clipPath id="clip0_34717_6862">
<rect width="35.3333" height="35.3333" fill="white" transform="translate(8.83398 8.83331)"/>
</clipPath>
</defs>
</svg>
