<svg width="31" height="31" viewBox="0 0 31 31" fill="none" xmlns="http://www.w3.org/2000/svg">
<path d="M15.5 16.7917C17.6401 16.7917 19.375 15.0569 19.375 12.9167C19.375 10.7766 17.6401 9.04175 15.5 9.04175C13.3599 9.04175 11.625 10.7766 11.625 12.9167C11.625 15.0569 13.3599 16.7917 15.5 16.7917Z" stroke="white" stroke-width="2" stroke-linecap="round" stroke-linejoin="round"/>
<path d="M15.4993 2.58337C12.7588 2.58337 10.1305 3.67206 8.19258 5.60994C6.2547 7.54781 5.16602 10.1761 5.16602 12.9167C5.16602 15.3605 5.68527 16.9596 7.10352 18.7292L15.4993 28.4167L23.8952 18.7292C25.3134 16.9596 25.8327 15.3605 25.8327 12.9167C25.8327 10.1761 24.744 7.54781 22.8061 5.60994C20.8682 3.67206 18.2399 2.58337 15.4993 2.58337V2.58337Z" stroke="white" stroke-width="2" stroke-linecap="round" stroke-linejoin="round"/>
</svg>
