<svg width="48" height="48" viewBox="0 0 48 48" fill="none" xmlns="http://www.w3.org/2000/svg">
<path d="M7.19922 13.2C7.19922 11.6087 7.83136 10.0826 8.95658 8.95737C10.0818 7.83215 11.6079 7.20001 13.1992 7.20001H25.1992C26.7905 7.20001 28.3166 7.83215 29.4419 8.95737C30.5671 10.0826 31.1992 11.6087 31.1992 13.2C31.1992 13.5183 31.0728 13.8235 30.8477 14.0485C30.6227 14.2736 30.3175 14.4 29.9992 14.4C29.681 14.4 29.3757 14.2736 29.1507 14.0485C28.9256 13.8235 28.7992 13.5183 28.7992 13.2C28.7992 12.2452 28.4199 11.3296 27.7448 10.6544C27.0697 9.9793 26.154 9.60001 25.1992 9.60001H13.1992C12.2444 9.60001 11.3288 9.9793 10.6536 10.6544C9.9785 11.3296 9.59922 12.2452 9.59922 13.2V25.2C9.59922 26.1548 9.9785 27.0705 10.6536 27.7456C11.3288 28.4207 12.2444 28.8 13.1992 28.8H24.0328C24.1812 27.4814 24.8099 26.2636 25.7989 25.379C26.788 24.4943 28.0681 24.0048 29.395 24.0039C30.722 24.0029 32.0028 24.4906 32.9931 25.3737C33.9834 26.2569 34.6139 27.4738 34.7642 28.7922C34.9145 30.1106 34.5741 31.4382 33.808 32.5216C33.0419 33.6051 31.9036 34.3685 30.6105 34.6662C29.3174 34.9639 27.96 34.7751 26.7972 34.1358C25.6344 33.4965 24.7478 32.4514 24.3064 31.2H13.1992C11.6079 31.2 10.0818 30.5679 8.95658 29.4427C7.83136 28.3174 7.19922 26.7913 7.19922 25.2V13.2ZM17.9992 33.6C17.681 33.6 17.3757 33.7264 17.1507 33.9515C16.9256 34.1765 16.7992 34.4818 16.7992 34.8C16.7992 36.3913 17.4314 37.9174 18.5566 39.0427C19.6818 40.1679 21.2079 40.8 22.7992 40.8H34.7992C36.3905 40.8 37.9166 40.1679 39.0419 39.0427C40.1671 37.9174 40.7992 36.3913 40.7992 34.8V22.8C40.7992 21.2087 40.1671 19.6826 39.0419 18.5574C37.9166 17.4322 36.3905 16.8 34.7992 16.8H23.692C23.2507 15.5486 22.364 14.5036 21.2012 13.8642C20.0385 13.2249 18.681 13.0361 17.3879 13.3338C16.0948 13.6316 14.9566 14.395 14.1905 15.4784C13.4243 16.5618 13.0839 17.8894 13.2342 19.2078C13.3845 20.5262 14.015 21.7431 15.0053 22.6263C15.9956 23.5095 17.2765 23.9971 18.6034 23.9962C19.9303 23.9952 21.2105 23.5057 22.1995 22.6211C23.1885 21.7364 23.8172 20.5186 23.9656 19.2H34.7992C35.754 19.2 36.6697 19.5793 37.3448 20.2544C38.0199 20.9296 38.3992 21.8452 38.3992 22.8V34.8C38.3992 35.7548 38.0199 36.6705 37.3448 37.3456C36.6697 38.0207 35.754 38.4 34.7992 38.4H22.7992C21.8444 38.4 20.9288 38.0207 20.2536 37.3456C19.5785 36.6705 19.1992 35.7548 19.1992 34.8C19.1992 34.4818 19.0728 34.1765 18.8477 33.9515C18.6227 33.7264 18.3175 33.6 17.9992 33.6Z" fill="#2C49FE"/>
</svg>
