<svg width="24" height="23" viewBox="0 0 24 23" fill="none" xmlns="http://www.w3.org/2000/svg">
<g clip-path="url(#clip0_91271_510)">
<path d="M12.0018 -0.0238037C5.8099 -0.0238037 0.771484 5.0106 0.771484 11.2C0.771484 17.3894 5.8099 22.4238 12.0018 22.4238C18.1937 22.4238 23.2322 17.3894 23.2322 11.2C23.2322 5.0106 18.1937 -0.0238037 12.0018 -0.0238037ZM12.0018 21.6762C6.22242 21.6762 1.52087 16.9764 1.52087 11.2C1.52087 5.4236 6.22242 0.723796 12.0018 0.723796C17.7812 0.723796 22.4828 5.4236 22.4828 11.2C22.4828 16.9764 17.7812 21.6762 12.0018 21.6762Z" fill="white"/>
<path d="M18.1601 7.7321C18.2378 7.58837 18.3018 7.43768 18.3513 7.282C18.3742 7.20978 18.3746 7.13232 18.3526 7.05984C18.3305 6.98736 18.287 6.92326 18.2278 6.87602C18.1685 6.82878 18.0963 6.80061 18.0207 6.79523C17.9451 6.78985 17.8696 6.80752 17.8043 6.8459C17.4454 7.05898 17.0569 7.21774 16.6515 7.317C16.1593 6.87304 15.5201 6.62692 14.8572 6.6261C14.497 6.62638 14.1405 6.69934 13.8093 6.84062C13.478 6.9819 13.1786 7.18859 12.9292 7.44829C12.6798 7.70799 12.4854 8.01536 12.3576 8.35196C12.2299 8.68857 12.1715 9.04749 12.186 9.4072C10.6109 9.20901 9.17253 8.41239 8.16938 7.1826C8.13094 7.13601 8.08182 7.09938 8.02619 7.07582C7.97056 7.05226 7.91006 7.04247 7.84984 7.04728C7.78961 7.05209 7.73144 7.07136 7.68026 7.10345C7.62908 7.13554 7.5864 7.1795 7.55586 7.2316C7.32616 7.62565 7.2013 8.07195 7.19321 8.52793C7.18512 8.98391 7.29406 9.43436 7.50963 9.8363C7.45676 9.84522 7.40597 9.86372 7.35976 9.8909C7.30313 9.92699 7.25651 9.97675 7.22419 10.0356C7.19188 10.0944 7.17491 10.1605 7.17486 10.2276C7.17486 11.0221 7.52854 11.7515 8.09864 12.2471L8.07413 12.2716C8.03109 12.3203 8.00148 12.3793 7.98821 12.4429C7.97495 12.5065 7.97849 12.5724 7.99849 12.6342C8.11737 13.0049 8.31586 13.3451 8.58007 13.631C8.84429 13.917 9.16784 14.1418 9.52808 14.2897C8.78821 14.6504 7.96022 14.7911 7.14264 14.695C7.0586 14.6864 6.97409 14.706 6.90236 14.7506C6.83063 14.7952 6.77572 14.8623 6.74624 14.9414C6.71793 15.0211 6.7174 15.108 6.74473 15.1881C6.77206 15.2681 6.82566 15.3366 6.89682 15.3824C8.0083 16.0954 9.30134 16.4742 10.6221 16.4737C14.9503 16.4737 17.5374 12.9597 17.5374 9.5626L17.5367 9.4478C17.9562 9.12049 18.3206 8.72819 18.616 8.2858C18.6607 8.21892 18.6827 8.13942 18.6788 8.05907C18.6748 7.97872 18.645 7.90179 18.5938 7.83967C18.5427 7.77755 18.4729 7.73355 18.3948 7.71417C18.3166 7.6948 18.2343 7.70108 18.1601 7.7321ZM16.9379 8.9606C16.8871 8.99712 16.8463 9.0458 16.8191 9.10217C16.7919 9.15854 16.7793 9.22081 16.7825 9.2833C16.7867 9.3757 16.7888 9.4695 16.7888 9.5619C16.7888 12.5915 14.4825 15.7254 10.6228 15.7254C9.93437 15.7257 9.25084 15.6102 8.6008 15.3838C9.37932 15.2347 10.1107 14.901 10.7334 14.4108C10.794 14.363 10.8384 14.2977 10.8605 14.2238C10.8825 14.1498 10.8812 14.0709 10.8567 13.9977C10.8322 13.9246 10.7856 13.8608 10.7234 13.815C10.6613 13.7693 10.5865 13.7439 10.5093 13.7423C10.2073 13.7365 9.91092 13.6599 9.64401 13.5186C9.3771 13.3773 9.14714 13.1753 8.97269 12.9289C9.14989 12.917 9.32358 12.8876 9.49236 12.8421C9.57405 12.8202 9.64592 12.7714 9.69624 12.7034C9.74656 12.6355 9.77237 12.5525 9.76944 12.4681C9.76652 12.3836 9.73504 12.3026 9.68014 12.2383C9.62524 12.174 9.55016 12.1303 9.46715 12.1141C9.12609 12.0448 8.81031 11.884 8.55359 11.6492C8.29686 11.4143 8.10886 11.114 8.00969 10.7806C8.19599 10.8275 8.38719 10.8548 8.57839 10.8611C8.74297 10.8604 8.89565 10.7596 8.94678 10.6014C8.99791 10.4432 8.93768 10.2689 8.7983 10.1765C8.46876 9.95705 8.21503 9.64129 8.07175 9.27232C7.92848 8.90336 7.90265 8.49918 7.99779 8.115C9.21434 9.36262 10.8571 10.1056 12.5978 10.1954C12.721 10.1961 12.8289 10.152 12.9038 10.0617C12.9788 9.9714 13.0075 9.8517 12.9809 9.7369C12.8851 9.3246 12.9279 8.89224 13.1028 8.50673C13.2776 8.12122 13.5747 7.80405 13.9481 7.60431C14.3215 7.40457 14.7503 7.33339 15.1682 7.40179C15.5861 7.4702 15.9699 7.67436 16.26 7.9827C16.3035 8.02907 16.358 8.06361 16.4186 8.08308C16.4791 8.10256 16.5436 8.10631 16.606 8.094C16.7215 8.0709 16.8357 8.0443 16.9484 8.0135C16.8976 8.05153 16.8448 8.08682 16.7902 8.1192C16.7175 8.16366 16.6622 8.23153 16.6334 8.31162C16.6045 8.3917 16.6038 8.47923 16.6314 8.55977C16.6589 8.64031 16.7131 8.70906 16.785 8.75469C16.8569 8.80033 16.9422 8.82011 17.0269 8.8108L17.1543 8.7947C17.0842 8.85249 17.012 8.90782 16.9379 8.9606Z" fill="white"/>
</g>
<defs>
<clipPath id="clip0_91271_510">
<rect width="22.4117" height="22.4" fill="white" transform="translate(0.796875)"/>
</clipPath>
</defs>
</svg>
